<?xml version="1.0" encoding="UTF-8"?>
<svg xmlns="http://www.w3.org/2000/svg" version="1.1" viewBox="0 0 1080 1080">
  <defs>
    <style>
      .cls-1 {
        fill: #0e0e0e;
      }
    </style>
  </defs>
  <!-- Generator: Adobe Illustrator 28.6.0, SVG Export Plug-In . SVG Version: 1.2.0 Build 709)  -->
  <g>
    <g id="Capa_1">
      <cliPath id="mask">
        <path class="cls-1" d="M999.29,640.27c-21.04-2.99-42.24-5.08-63.42-6.8-110.11-8.93-220.27,11.84-329.48,27.69-174.65,25.34-374.91,102.7-390.96,116.81-3.51,3.27-4.98,7.09-3.36,11.03.17.4.9-.02,1.11-.42.19-.35.77-.72,1.44-1.13,12.36-7.72,120.59-56,349.54-95.93,101.98-17.14,205.37-25.54,308.77-24.53,26.17.25,52.35,1.01,78.47,2.54,25.51,1.5,51.71,4.74,73.9,18.42,1.09.67,6.22,3.78,9.94,6.71,1.91,1.5,4.74.4,5.07-2.01,1.67-12.18,1.93-25.49-4.95-35.9-7.89-11.92-22.88-14.73-36.08-16.48Z"/>
        <path class="cls-1" d="M621.44,417.37c.8-.9.44-2.37-.71-2.68-.84-.23-1.84-.75-3-1.68-7.97-39.22,9.96-76.24,41.12-92.13,20.35-10.38,42.47-10.04,64.77-4.68,24.81,5.97,44.8,28.61,52.4,50.7,4.53,13.17,4.83,27.61,1.84,41.2-4.56,20.75-16.93,39.78-34.37,51.91-16.21,11.27-36.69,16.35-56.23,13.68-.5-12.12-.93-22.77-1.04-30.51-.24-17,1.4-34.92,8.87-50.43,7.63-15.83,20.77-24.8,37.53-28.24.77-.16,1.06-1.13.47-1.65-1.77-1.55-3.93-2.91-5.97-3.82-18.82-8.44-46.62,3.74-57.06,19.26-2.94,4.36-5.25,9.14-6.88,14.14-.75,2.31-1.4,4.66-1.95,7.03-3.26,13.97-3.67,28.55-3.16,42.83,2.55,71.11,5.97,118.12-4.5,150.87-6.29,20.06-13.1,25.07-23.58,28.75-.88.31,4.84,3.15,5.78,3.08,29.92-2.28,41.22-8.5,49.04-34.1,5.39-17.63,4.62-60.02,3.26-96.86,14.77,2.67,30.15,1.97,44.58-2.15,41.15-11.74,71.9-50.57,73.29-93.39.17-5.38-.15-10.77-.87-16.1-.3-2.17-.66-4.34-1.08-6.49-.79-4.01-1.79-7.99-2.99-11.9-4.51-14.69-11.88-28.67-22.49-39.88-18.71-19.79-45.09-29.9-71.36-32.44-6.17-.6-12.24-.76-18.25-.53-19.27.76-38.2,6.11-54.32,16.69-20.2,13.26-32.41,31.26-38.3,48.9-4.3,12.87-6.44,26.47-6.2,40.04,1.06,13.53,5.39,20.63,8.46,23.62,4.27,4.14,18.93,1.42,22.92-3.08Z"/>
        <path class="cls-1" d="M247.36,603.18c.21-1.53.39-3.09.58-4.62.66-6.33.92-12.69.71-19.04-.16-4.59-.58-9.16-1.25-13.71-1.5-10.16-3.83-21.6-10.26-29.94-6.13-7.94-16.16-7.02-24.01-2.27-.61.36-1.2.74-1.76,1.15-.98.72-.88,2.23.19,2.83.9.5,1.91,1.4,3,2.95,5.56,7.88,7.79,18.99,8.86,28.38,3.06,26.65-6.94,54.75-24.35,74.93-4.54,5.29-9.68,10.08-15.34,14.14-18.96,13.68-43.09,19.29-66.1,14.95-27.41-5.15-48.27-25.02-50.12-53.55-2.99-46.94,35.07-80.09,76.31-94.21,1.68-.58,3.37-1.13,5.06-1.64,9.39-2.86,23.51-5.46,27.85-15.65,2.19-5.15.73-9.48-2.48-12.48-3.96-3.7-9.83-4.47-14.89-2.51-9.52,3.7-18.05,4.83-29.42,1.36-9-2.74-15.29-11.4-15.63-24.42-.25-9.79,1.98-15.48,5.56-24.44.1-.25.21-.48.33-.72,4.42-9.5,10.7-16.21,16.1-20.75.35-.3.69-.58,1.02-.86,2.56-2.15,5.24-4.06,7.99-5.71.12-.07.23-.15.33-.21.56-.33,1.13-.66,1.69-.97,5.34-2.65,11.1-4.52,17.08-5.51,13.55-1.68,29.37,1.28,41.43,7.68,10.84,6.38,19.39,15.88,24.65,27.08,0,.03.02.07.03.1.25.76.43,1.5.51,2.2-.15.85.43,1.61,1.2,1.83.28.08.59.1.9-.02,7.32-2.2,16.85-12.43,9.62-23.94-1.46-2.33-3.88-5.98-7-9.42-7.91-8.7-16.08-15.59-24.3-20.91-61.15-39.61-141.43,12.97-129.53,84.86,3.4,20.67,15.76,31.56,17.8,34.34-30.98,21.75-57,50.85-65.04,84.11-10.77,44.59,14.85,90.07,52.58,104.11,20.55,7.68,43.51,8.22,64.88,4,22.28-4.39,43.87-14.26,60.64-29.74,20.7-19.09,30.8-46.37,34.56-73.73Z"/>
        <path class="cls-1" d="M802.94,566.84s-.06.04-.08.05c-4.87,4.39-9.86,6.39-14.35,5.21-1.17-.3-2.25-.8-3.26-1.51-1.66-.89-2.95-2.31-3.91-4.14-6.08-9.33-7.1-28.47-1.79-49.17,3.44-10.67,6.15-18.28,7.37-20.12,1.39-2.1,2.71-3.31,3.87-3.96,1.34-.76,1.31-2.7.03-3.56-.29-.19-4.7-3.41-10.7-5-7.46-1.79-15.82.29-20.43,14.77-5.54,14.5-12.34,38.68-8.17,62.8,3.28,18.97,13.57,38.96,46.36,35.05,15.25-1.83,25.74-17.8,29.09-25.2.62-1.38,2.6-1.3,3.11.14,2.84,7.97,11.56,15.07,24.64,14.77,14.17-.33,25.56-9.72,32.73-20.25,1.13,1.48,2.39,2.91,3.84,4.26,11.03,10.08,30.19,7.03,42.59-.49,13.99-8.1,18.98-13.67,31.34-24.43.69-.61,1.36-1.23,1.98-1.82,10.61-8.14,20.83-16.69,30.91-24.87,3.05-2.46,6.11-4.84,9.2-7.2,3.5,6.39,7.08,13.14,10.23,19.73,6.98,13.66,12.87,29.85-.2,41.54-6.69,6.47-17.35,8.51-26.24,6.03-5.78-1.46-10.03-4.35-12.04-9.85-2.13-5.71,1.01-11.33,4.94-16.16,1.89-2.19,1.88-5.53-.15-7.71-2.17-2.34-5.83-2.47-8.16-.29-5.18,4.67-10.37,11.55-11.36,19.2-2.87,21.12,17.84,33.06,36.32,33.38,37.93,1.9,57.72-30.48,41.79-64.2-3.63-7.82-7.88-15.31-12.24-22.63-1.8-3.32-3.91-6.52-6.11-9.69.86-.52,1.78-1.04,2.84-1.63,14.8-6.82,26.17-23.48,18.6-40.35-4.57-10.15-14.54-17.02-25.45-17.99-19.12-1.45-30.79,14.18-28.79,32.35.62,8.46,4.14,16.72,8.15,24.3-13.02,10.93-25.48,22.5-38.76,33.02-1,.65-2.1,1.44-3.31,2.38-14.81,11.34-12.54,10.84-29.25,18.94-2.68,1.3-5.54,2.24-8.49,2.59-18.36,2.2-17.53-16.86-13.08-31.45,1.09.05,2.17.11,3.22.16,0,0,5.28.21,5.28.21,9.97.58,19.89-2.14,28.56-6.83,10.67-5.77,21.82-15.71,24.6-28.49,2.21-10.28-1.43-21.43-9.68-28.3-32.71-24.04-66.13,22.65-75.01,50.35-.75,3.02-1.34,5.19-1.78,7.15-.78,2.93-2.24,13.65-2.72,19.88-2.27,14.04-4.42,26.32-21.71,23.87-12.5-1.77-9.35-23.38-6.71-40.17,2.64-16.78,9.92-50.59,8.01-56.16-1.34-3.96-7.66-7.57-13.62-7.9-4.35-.19-8.28.64-10.71,1.38-1.13.34-1.75,1.61-1.03,2.55.63.83,1.17,1.08,1.54,3,.13.77-5.39,33.56-8.66,49.58-.57,4.59-1.51,9.35-2.77,14.21-2.94,11.26-7.3,21.19-12.26,28.8-.02.05-.05.08-.07.12-2.45,3.92-5.17,7.27-8.1,9.79ZM1011.39,457.56c8.05-5.02,20.04,2.32,20.04,11.56,0,3.37-2.01,6.46-4.35,8.89-2.95,2.94-8.9,5.16-13.62,7.87-2.67-4.48-4.86-9.1-5.94-14.05-.99-5.5-.96-11.19,3.87-14.26ZM910.84,510.06c5.31-11.48,17.42-33.27,30.78-34.48,5.07-.12,8.52,4.94,7.96,9.78-1.39,7.59-7.99,13.41-14.21,17.68-6.33,4.15-13.3,6.57-20.6,6.92,0,0-2.51.17-4,.27.03-.05.05-.11.08-.16Z"/>
        <path class="cls-1" d="M956.76,429.03c.93.41,2.02-.26,1.97-1.27-.04-.88.16-2.03.84-3.55.97-2.17,2.87-4.17,4.34-6.01,3.33-4.18,6.98-8.12,10.6-12.05,1.13-1.22,2.57-2.26,3.3-3.79.75-1.58.19-3.41-.62-4.87-.07-.14-.15-.27-.23-.4-1.46-2.47-3.68-4.72-5.78-6.63-2.26-2.06-4.81-3.8-7.67-4.93-.94-.37-2.01.34-1.92,1.35.34,3.82-2.46,7.42-4.25,10.57-1.61,2.83-3.25,5.63-4.92,8.42-.83,1.4-1.67,2.79-2.5,4.19-.73,1.23-1.7,2.48-2.2,3.83-1.21,3.27-.99,6.62,1.14,9.46,1.96,2.62,4.93,4.42,7.89,5.7Z"/>
        <path class="cls-1" d="M269.32,684.63c7.37,1.11,14.09-6.04,15.31-16.22,13.61-59.17,14.42-66.11,20.23-79.68,5.81-13.57,20.07-37.95,14.88,15.32-5.19,53.27,2.95,64.2,20.26,68.06,11.4,2.54,24.91-3.85,31.99-13.09,4.19-5.47,6.92-10.73,8.68-15.95,4.92,7.29,12.36,12.96,21.76,15.26,8.9,2.18,17.58-.99,24.92-5.99,12.77-8.69,18.2-17.27,25.16-30.76.15-.29.32-.63.5-1,19.05-35.23,24.39-78.48,24.39-78.48l26.29-5.28c-.61-.09-9.46,65.33-9.86,69.71-.86,9.55-1.8,23.52,4.62,31.78,7.27,9.34,18.98,10.85,28.66,5.59,8.51-4.63,17.67-13.77,21.02-25.79,1.44,1.91,3.05,3.73,4.86,5.42,11.03,10.08,28.42,10.79,40.82,3.27,13.99-8.1,20.5-21.33,27.73-28.88,3.64-4.03,7.65-9.21,9.7-10.21,1.01-.5.95-1.24.51-2.12-2.58-5.26-5.83-12.9-15.87-2.7-11.32,9.4-17.54,20.7-30.83,27.41-21.28,8.09-23.88-16.12-20.43-34.42,1.09.05,2.17.11,3.22.16,0,0,5.28.21,5.28.21,9.97.58,19.89-2.14,28.56-6.83,10.67-5.77,21.82-15.71,24.6-28.49,2.21-10.28-1.43-21.43-9.68-28.3-32.71-24.04-66.13,22.65-75.01,50.35-1.53,6.12-2.35,8.72-2.71,13.27-.32,2.65-.52,5.33-.57,8-.01-.03-.02-.05-.02-.05,0,0-.76,45.85-20.63,43.73-13.16-1.41-.14-62.77,8.34-92.16,8.49-29.39-12.04-28.04-17.44-24.05-11.28,8.65-19.94,14.05-31.21,14.55-.36.02.21-3.76-.01-9.71-.1-2.68-.52-5.39-1.75-7.77-4.06-7.81-13.81-11.39-22.19-9.59-13.98,3.01-26.18,21.54-18.17,35.01,2.24,3.76,5.96,6.63,10.16,7.86.93.27,9.11,2.37,9.25,1.44-1.11,32.6-17.37,62.97-24.08,74.2-18.84,30.3-36.33,25.36-31.26-5.43,2.6-15.79,9.52-86.39,15.37-146.71,7.24-2.39,14.48-4.78,21.72-7.18,27.2-8.99,82.28-29.32,111.19-23.24,1.43.3,12.07,4.16,18.94,7.27,2.07.94,4.13-1.25,3.11-3.28-4.55-9.08-14.24-24-24.86-25.56-41.05-6.03-88.7,12.11-127.67,26.9,3.31-34.17,5.95-61.05,6.67-65.86,2.08-13.82-.58-15.47-5.46-16.2s-7.72-1.16-10.55,14.21c-1.93,10.51-6.44,40.21-11.57,75.45-31.47,10.73-93.7,29.68-113.77,27.31-6.57-.78-14.63-3.32-19.87-8.27-1.17-1.11-3.07-.01-2.64,1.54,2.23,8.17,8.57,21.89,26.59,30.53,9.83,3.69,20.02,1.93,29.66-1.28,10.88-3.62,44.83-14.58,55.72-18.18,6.91-2.28,13.82-4.57,20.73-6.85-7.08,49.44-14.45,103.2-17.46,128.88-7.27,32.54-20.16,54.79-27.95,52.5-8.72-2.57-9.47-15.47-6.63-48.95,2.84-33.48,4.79-58.93-11.02-64.45-15.81-5.52-29.63,11.24-39.53,31.1,3.11-20.67-11.53-20.29-19.1-18.79-1.18.23-1.78,1.62-1.05,2.57.63.82,1.22,2.08,1.58,4.01,1.22,6.43-7.22,79.28-10.88,99.45s1.36,24.38,8.72,25.49ZM568.92,562.25c5.31-11.48,17.42-33.27,30.78-34.48,5.07-.12,8.52,4.94,7.96,9.78-1.39,7.59-7.99,13.41-14.21,17.68-6.33,4.15-13.3,6.57-20.6,6.92,0,0-2.51.17-4,.27.03-.05.05-.11.08-.16ZM454.49,525.11s-4.47-1.55-4.73-3.95c-.26-2.4,3.68-5.54,4.89-4.1,1.21,1.43.8,8.06.8,8.06h-.96Z"/>
      </cliPath>
    </g>
  </g>
</svg>